<svg xmlns="http://www.w3.org/2000/svg" width="1600" height="900" viewBox="0 0 1600 900">
<defs>
  <linearGradient id="g" x1="0" x2="1">
    <stop offset="0" stop-color="#04101f"/>
    <stop offset="0.55" stop-color="#0a1022"/>
    <stop offset="1" stop-color="#21101d"/>
  </linearGradient>
  <radialGradient id="r1" cx="75%" cy="45%" r="50%">
    <stop offset="0" stop-color="#008cff" stop-opacity=".35"/>
    <stop offset="1" stop-color="#008cff" stop-opacity="0"/>
  </radialGradient>
  <radialGradient id="r2" cx="92%" cy="30%" r="32%">
    <stop offset="0" stop-color="#ff334f" stop-opacity=".22"/>
    <stop offset="1" stop-color="#ff334f" stop-opacity="0"/>
  </radialGradient>
</defs>
<rect width="1600" height="900" fill="url(#g)"/>
<rect width="1600" height="900" fill="url(#r1)"/>
<rect width="1600" height="900" fill="url(#r2)"/>
<g opacity=".14" stroke="#7dc7ff">
  <path d="M0 160 H1600 M0 320 H1600 M0 480 H1600 M0 640 H1600 M0 800 H1600"/>
  <path d="M160 0 V900 M320 0 V900 M480 0 V900 M640 0 V900 M800 0 V900 M960 0 V900 M1120 0 V900 M1280 0 V900 M1440 0 V900"/>
</g>
<g fill="none" stroke="#1ea7ff" stroke-width="5" opacity=".45">
  <path d="M1030 630 C1100 520 1230 455 1380 470 C1475 480 1520 535 1570 610"/>
  <path d="M1080 610 L1185 610 L1235 570 L1400 570 L1485 620"/>
</g>
<g fill="#1ea7ff" opacity=".6">
  <circle cx="1210" cy="640" r="34"/>
  <circle cx="1450" cy="640" r="34"/>
</g>
</svg>